<svg id="svg" version="1.1" xmlns="http://www.w3.org/2000/svg" xmlns:xlink="http://www.w3.org/1999/xlink" width="400" height="400" viewBox="0, 0, 400,400"><g id="svgg"><path id="path0" d="M86.871 89.720 C 90.831 99.278,94.141 110.644,95.219 118.385 C 95.534 120.648,95.876 122.603,95.979 122.730 C 96.082 122.856,97.687 119.712,99.545 115.743 C 101.404 111.773,103.054 108.482,103.212 108.429 C 103.371 108.376,124.125 128.958,149.333 154.167 L 195.166 200.000 154.750 240.417 L 114.333 280.833 106.917 280.917 L 99.501 281.000 87.500 293.037 L 75.500 305.073 83.833 304.862 L 92.167 304.652 103.582 293.246 L 114.997 281.840 116.500 283.342 L 118.003 284.845 106.502 296.298 L 95.000 307.751 95.000 316.118 L 95.000 324.486 98.046 321.493 C 99.721 319.847,105.196 314.413,110.213 309.418 L 119.333 300.336 119.333 292.716 L 119.333 285.096 159.583 244.889 L 199.833 204.683 240.333 245.175 L 280.833 285.667 280.833 292.916 L 280.833 300.164 292.805 312.082 C 299.389 318.637,304.846 324.000,304.932 324.000 C 305.017 324.000,304.977 320.307,304.842 315.793 L 304.598 307.587 293.382 296.269 C 280.391 283.159,281.654 284.806,283.336 283.164 L 284.681 281.851 296.092 293.259 L 307.504 304.667 316.000 304.667 L 324.497 304.667 312.333 292.500 L 300.170 280.333 292.501 280.333 L 284.832 280.333 244.667 240.167 L 204.501 200.000 250.333 154.167 C 275.541 128.958,296.296 108.376,296.454 108.429 C 296.613 108.482,298.263 111.778,300.121 115.754 C 303.930 123.902,303.565 123.757,304.519 117.500 C 305.669 109.955,309.272 97.864,312.943 89.223 C 313.865 87.055,314.442 85.354,314.226 85.445 C 314.010 85.535,312.183 86.310,310.167 87.167 C 300.417 91.308,285.643 95.337,277.500 96.076 C 276.701 96.148,277.971 96.857,283.833 99.608 C 287.867 101.500,291.276 103.154,291.409 103.283 C 291.542 103.412,270.991 124.176,245.741 149.425 L 199.832 195.333 153.848 149.348 L 107.864 103.363 112.849 101.020 C 122.717 96.381,123.334 96.042,121.960 96.020 C 114.980 95.906,99.334 91.376,85.431 85.445 C 85.210 85.350,85.858 87.274,86.871 89.720 M198.000 90.333 L 198.000 92.333 196.000 92.333 L 194.000 92.333 194.000 94.167 L 194.000 96.000 196.000 96.000 L 198.000 96.000 198.000 97.199 C 198.000 98.214,197.747 98.625,196.358 99.875 C 195.353 100.778,194.629 101.747,194.492 102.370 C 194.293 103.276,194.170 103.364,193.384 103.165 C 179.108 99.551,169.402 115.792,180.185 125.249 L 181.992 126.833 181.996 130.750 L 182.000 134.667 200.000 134.667 L 218.000 134.667 218.004 130.750 L 218.008 126.833 219.815 125.249 C 230.598 115.793,220.887 99.545,206.616 103.165 C 205.830 103.364,205.707 103.276,205.508 102.370 C 205.371 101.747,204.647 100.778,203.642 99.875 C 202.253 98.625,202.000 98.214,202.000 97.199 L 202.000 96.000 204.000 96.000 L 206.000 96.000 206.000 94.167 L 206.000 92.333 204.000 92.333 L 202.000 92.333 202.000 90.333 L 202.000 88.333 200.000 88.333 L 198.000 88.333 198.000 90.333 M201.476 102.857 C 203.169 104.550,201.134 107.270,199.000 106.167 C 197.127 105.198,197.874 102.333,200.000 102.333 C 200.524 102.333,201.188 102.569,201.476 102.857 M191.392 106.678 C 193.732 107.327,195.730 108.994,196.910 111.279 L 198.000 113.392 198.000 119.029 L 198.000 124.667 192.232 124.667 C 185.613 124.667,184.094 124.218,181.852 121.598 C 175.942 114.694,182.625 104.242,191.392 106.678 M215.680 107.535 C 221.877 110.894,221.903 119.952,215.725 123.584 C 214.203 124.479,214.026 124.503,208.083 124.610 L 202.000 124.720 202.000 119.243 C 202.000 113.366,202.190 112.358,203.715 110.113 C 206.198 106.460,211.563 105.304,215.680 107.535 M214.333 129.833 L 214.333 131.000 200.000 131.000 L 185.667 131.000 185.667 129.833 L 185.667 128.667 200.000 128.667 L 214.333 128.667 214.333 129.833 M99.699 184.728 C 99.179 186.060,90.609 207.812,90.431 208.250 C 90.338 208.479,89.828 208.667,89.298 208.667 C 88.556 208.667,88.333 208.820,88.333 209.333 C 88.333 209.956,88.556 210.000,91.667 210.000 C 94.778 210.000,95.000 209.956,95.000 209.333 C 95.000 208.763,94.778 208.667,93.464 208.667 C 92.375 208.667,91.974 208.545,92.084 208.250 C 92.169 208.021,92.670 206.667,93.198 205.242 L 94.157 202.651 99.478 202.742 L 104.799 202.833 106.022 205.667 L 107.245 208.500 105.956 208.602 C 104.937 208.684,104.667 208.841,104.667 209.352 C 104.667 209.962,104.933 210.000,109.167 210.000 C 113.393 210.000,113.667 209.961,113.667 209.355 C 113.667 208.914,113.398 208.678,112.813 208.605 C 112.025 208.508,111.563 207.555,106.865 196.333 C 102.092 184.934,101.715 184.160,100.885 184.061 C 100.215 183.981,99.927 184.143,99.699 184.728 M294.699 184.728 C 294.179 186.060,285.609 207.812,285.431 208.250 C 285.338 208.479,284.828 208.667,284.298 208.667 C 283.556 208.667,283.333 208.820,283.333 209.333 C 283.333 209.956,283.556 210.000,286.667 210.000 C 289.778 210.000,290.000 209.956,290.000 209.333 C 290.000 208.763,289.778 208.667,288.464 208.667 C 287.375 208.667,286.974 208.545,287.084 208.250 C 287.169 208.021,287.670 206.667,288.198 205.242 L 289.157 202.651 294.478 202.742 L 299.799 202.833 301.022 205.667 L 302.245 208.500 300.956 208.602 C 299.937 208.684,299.667 208.841,299.667 209.352 C 299.667 209.962,299.933 210.000,304.167 210.000 C 308.393 210.000,308.667 209.961,308.667 209.355 C 308.667 208.914,308.398 208.678,307.813 208.605 C 307.025 208.508,306.563 207.555,301.865 196.333 C 297.092 184.934,296.715 184.160,295.885 184.061 C 295.215 183.981,294.927 184.143,294.699 184.728 M101.868 195.681 L 104.263 201.333 99.470 201.333 L 94.676 201.333 95.292 199.750 C 95.630 198.879,96.637 196.263,97.528 193.936 C 98.420 191.609,99.222 189.778,99.311 189.867 C 99.400 189.955,100.550 192.572,101.868 195.681 M296.868 195.681 L 299.263 201.333 294.470 201.333 L 289.676 201.333 290.292 199.750 C 290.630 198.879,291.637 196.263,292.528 193.936 C 293.420 191.609,294.222 189.778,294.311 189.867 C 294.400 189.955,295.550 192.572,296.868 195.681 M215.333 300.667 C 215.333 300.850,215.708 301.000,216.167 301.000 L 217.000 301.000 217.000 309.000 L 217.000 317.000 216.167 317.000 C 215.708 317.000,215.333 317.150,215.333 317.333 C 215.333 317.529,216.500 317.667,218.167 317.667 C 219.833 317.667,221.000 317.529,221.000 317.333 C 221.000 317.150,220.625 317.000,220.167 317.000 L 219.333 317.000 219.333 313.189 L 219.333 309.379 220.301 308.689 C 221.461 307.863,223.080 307.793,223.702 308.542 C 224.580 309.601,224.336 316.809,223.417 316.940 C 221.586 317.200,222.924 317.667,225.500 317.667 C 227.167 317.667,228.333 317.529,228.333 317.333 C 228.333 317.150,227.958 317.000,227.500 317.000 C 226.668 317.000,226.667 316.997,226.667 313.716 C 226.667 307.905,224.228 305.673,220.417 307.996 L 219.333 308.657 219.333 304.495 L 219.333 300.333 217.333 300.333 C 216.222 300.333,215.333 300.481,215.333 300.667 M143.304 309.365 C 141.330 314.571,140.327 316.805,139.917 316.918 C 138.706 317.250,139.402 317.667,141.167 317.667 C 142.175 317.667,143.000 317.517,143.000 317.333 C 143.000 317.150,142.615 317.000,142.144 317.000 C 141.215 317.000,141.218 316.792,142.190 314.417 L 142.633 313.333 145.812 313.333 L 148.991 313.333 149.456 314.446 C 150.409 316.727,150.434 317.000,149.689 317.000 C 149.310 317.000,149.000 317.150,149.000 317.333 C 149.000 317.526,150.056 317.667,151.500 317.667 C 154.044 317.667,154.390 317.529,153.501 316.870 C 153.227 316.667,151.674 313.275,150.051 309.333 C 148.266 304.997,146.905 302.128,146.605 302.069 C 146.240 301.998,145.368 303.925,143.304 309.365 M155.000 302.333 C 155.000 302.517,155.375 302.667,155.833 302.667 L 156.667 302.667 156.667 309.833 L 156.667 317.000 155.833 317.000 C 155.375 317.000,155.000 317.150,155.000 317.333 C 155.000 317.529,156.167 317.667,157.833 317.667 C 159.500 317.667,160.667 317.529,160.667 317.333 C 160.667 317.150,160.292 317.000,159.833 317.000 L 159.000 317.000 159.000 313.500 L 159.000 310.000 162.833 310.000 L 166.667 310.000 166.667 313.500 L 166.667 317.000 165.833 317.000 C 165.375 317.000,165.000 317.150,165.000 317.333 C 165.000 317.531,166.222 317.667,168.000 317.667 C 169.778 317.667,171.000 317.531,171.000 317.333 C 171.000 317.150,170.625 317.000,170.167 317.000 L 169.333 317.000 169.333 309.833 L 169.333 302.667 170.167 302.667 C 170.625 302.667,171.000 302.517,171.000 302.333 C 171.000 302.136,169.778 302.000,168.000 302.000 C 166.222 302.000,165.000 302.136,165.000 302.333 C 165.000 302.517,165.375 302.667,165.833 302.667 C 166.669 302.667,166.733 302.798,166.733 304.500 C 166.733 304.958,166.718 306.233,166.700 307.333 L 166.667 309.333 162.833 309.333 L 159.000 309.333 159.000 306.000 L 159.000 302.667 159.833 302.667 C 160.292 302.667,160.667 302.517,160.667 302.333 C 160.667 302.137,159.500 302.000,157.833 302.000 C 156.167 302.000,155.000 302.137,155.000 302.333 M179.333 302.333 C 179.333 302.517,179.783 302.667,180.333 302.667 L 181.333 302.667 181.333 309.833 L 181.333 317.000 180.333 317.000 C 179.783 317.000,179.333 317.150,179.333 317.333 C 179.333 317.536,180.833 317.667,183.167 317.667 C 186.945 317.667,188.573 317.137,185.417 316.935 L 183.833 316.833 183.738 313.583 L 183.643 310.333 185.464 310.333 C 187.418 310.333,188.333 310.873,188.333 312.024 C 188.333 312.377,188.483 312.667,188.667 312.667 C 188.861 312.667,189.000 311.556,189.000 310.000 C 189.000 307.397,188.613 306.507,188.199 308.157 C 187.924 309.250,186.949 309.726,185.237 309.602 L 183.833 309.500 183.833 306.167 L 183.833 302.833 186.780 302.833 C 190.080 302.833,191.000 303.387,191.000 305.370 C 191.000 305.900,191.150 306.333,191.333 306.333 C 191.521 306.333,191.667 305.389,191.667 304.167 L 191.667 302.000 185.500 302.000 C 181.611 302.000,179.333 302.123,179.333 302.333 M231.250 302.694 C 230.424 303.174,230.509 304.559,231.394 305.033 C 232.462 305.604,233.582 304.252,232.897 303.220 C 232.333 302.371,231.993 302.262,231.250 302.694 M147.239 309.083 L 148.588 312.500 145.919 312.597 C 142.584 312.719,142.718 312.994,144.189 309.027 C 145.714 304.918,145.594 304.915,147.239 309.083 M195.776 307.819 C 193.889 308.640,193.574 310.667,195.333 310.667 C 196.238 310.667,196.842 309.780,196.345 309.181 C 195.352 307.984,198.378 307.427,199.448 308.610 C 200.267 309.514,200.240 312.846,199.417 312.474 C 195.690 310.790,191.746 313.784,194.094 316.514 C 195.092 317.674,197.408 317.990,198.975 317.180 C 199.963 316.668,200.113 316.665,200.640 317.142 C 201.384 317.816,203.126 317.818,203.684 317.146 C 204.063 316.689,204.006 316.652,203.225 316.849 L 202.333 317.072 202.333 313.552 C 202.333 307.876,200.111 305.933,195.776 307.819 M207.324 307.897 C 204.871 309.576,205.547 311.871,208.947 313.402 C 212.229 314.880,212.796 315.489,211.810 316.476 C 210.706 317.580,206.667 316.556,206.667 315.172 C 206.667 314.464,206.007 314.537,205.967 315.250 C 205.949 315.571,205.897 316.246,205.852 316.750 C 205.765 317.720,206.452 318.041,206.781 317.184 C 206.941 316.766,207.108 316.772,208.014 317.224 C 210.389 318.408,213.667 317.025,213.667 314.839 C 213.667 313.322,213.037 312.672,210.288 311.348 C 207.796 310.149,207.227 309.432,208.013 308.484 C 208.931 307.378,212.333 308.309,212.333 309.667 C 212.333 309.850,212.483 310.000,212.667 310.000 C 212.850 310.000,213.000 309.382,213.000 308.626 C 213.000 307.469,212.924 307.315,212.521 307.649 C 212.173 307.938,211.861 307.949,211.377 307.690 C 210.373 307.153,208.253 307.261,207.324 307.897 M229.333 307.667 C 229.333 307.850,229.633 308.000,230.000 308.000 C 230.634 308.000,230.667 308.222,230.667 312.500 L 230.667 317.000 229.833 317.000 C 229.375 317.000,229.000 317.150,229.000 317.333 C 229.000 317.529,230.167 317.667,231.833 317.667 C 234.409 317.667,235.747 317.200,233.917 316.940 C 233.184 316.836,233.165 316.723,233.074 312.083 L 232.982 307.333 231.158 307.333 C 230.154 307.333,229.333 307.483,229.333 307.667 M238.833 307.954 C 234.339 310.730,236.140 317.667,241.355 317.667 C 245.422 317.667,247.897 313.109,245.733 309.607 C 244.398 307.446,240.980 306.627,238.833 307.954 M248.000 307.667 C 248.000 307.850,248.375 308.000,248.833 308.000 L 249.667 308.000 249.667 312.500 L 249.667 317.000 248.833 317.000 C 248.375 317.000,248.000 317.150,248.000 317.333 C 248.000 317.531,249.222 317.667,251.000 317.667 C 252.778 317.667,254.000 317.531,254.000 317.333 C 254.000 317.150,253.550 317.000,253.000 317.000 L 252.000 317.000 252.000 313.189 L 252.000 309.379 252.998 308.668 C 255.742 306.714,257.040 308.258,256.918 313.333 L 256.833 316.833 255.917 316.939 C 253.824 317.180,255.218 317.667,258.000 317.667 C 259.778 317.667,261.000 317.531,261.000 317.333 C 261.000 317.150,260.625 317.000,260.167 317.000 C 259.334 317.000,259.333 316.997,259.333 313.716 C 259.333 307.862,257.215 305.873,253.245 308.001 L 252.000 308.668 252.000 308.001 C 252.000 307.407,251.778 307.333,250.000 307.333 C 248.889 307.333,248.000 307.481,248.000 307.667 M242.674 308.337 C 244.622 309.380,244.323 316.080,242.297 316.791 C 240.357 317.471,239.245 316.480,238.795 313.671 C 238.155 309.664,240.115 306.968,242.674 308.337 M199.355 313.012 C 200.313 313.524,200.251 315.787,199.259 316.481 C 197.537 317.687,195.933 316.892,195.933 314.833 C 195.933 312.859,197.506 312.022,199.355 313.012 " stroke="none" fill="#ececec" fill-rule="evenodd"></path><path id="path1" d="M198.917 88.241 C 199.512 88.315,200.487 88.315,201.083 88.241 C 201.679 88.167,201.192 88.107,200.000 88.107 C 198.808 88.107,198.321 88.167,198.917 88.241 M194.917 92.241 C 195.512 92.315,196.487 92.315,197.083 92.241 C 197.679 92.167,197.192 92.107,196.000 92.107 C 194.808 92.107,194.321 92.167,194.917 92.241 M202.917 92.241 C 203.512 92.315,204.487 92.315,205.083 92.241 C 205.679 92.167,205.192 92.107,204.000 92.107 C 202.808 92.107,202.321 92.167,202.917 92.241 M190.750 134.916 C 195.837 134.968,204.162 134.968,209.250 134.916 C 214.337 134.865,210.175 134.822,200.000 134.822 C 189.825 134.822,185.662 134.865,190.750 134.916 M252.332 152.250 L 237.167 167.500 252.417 152.335 C 260.804 143.994,267.667 137.131,267.667 137.085 C 267.667 136.850,266.428 138.075,252.332 152.250 M162.667 167.833 C 178.524 183.692,191.574 196.667,191.665 196.667 C 191.757 196.667,178.858 183.692,163.000 167.833 C 147.142 151.975,134.093 139.000,134.001 139.000 C 133.910 139.000,146.809 151.975,162.667 167.833 M208.831 186.083 L 199.833 195.167 208.917 186.169 C 217.358 177.808,218.150 177.000,217.914 177.000 C 217.867 177.000,213.780 181.088,208.831 186.083 M190.833 186.333 C 195.597 191.100,199.570 195.000,199.662 195.000 C 199.754 195.000,195.931 191.100,191.167 186.333 C 186.403 181.567,182.430 177.667,182.338 177.667 C 182.246 177.667,186.069 181.567,190.833 186.333 M218.000 213.500 C 224.140 219.642,229.238 224.667,229.330 224.667 C 229.421 224.667,224.473 219.642,218.333 213.500 C 212.194 207.358,207.095 202.333,207.004 202.333 C 206.912 202.333,211.860 207.358,218.000 213.500 M174.499 220.417 L 157.833 237.167 174.583 220.501 C 190.153 205.011,191.483 203.667,191.249 203.667 C 191.202 203.667,183.665 211.204,174.499 220.417 M108.917 280.902 C 109.329 280.981,110.004 280.981,110.417 280.902 C 110.829 280.822,110.492 280.757,109.667 280.757 C 108.842 280.757,108.504 280.822,108.917 280.902 M119.443 287.167 C 119.444 288.450,119.504 288.934,119.577 288.243 C 119.649 287.551,119.648 286.501,119.574 285.909 C 119.500 285.317,119.441 285.883,119.443 287.167 M280.751 291.500 C 280.754 292.233,280.823 292.494,280.902 292.079 C 280.982 291.665,280.979 291.065,280.896 290.746 C 280.812 290.427,280.747 290.767,280.751 291.500 M280.762 295.167 C 280.765 296.083,280.829 296.419,280.906 295.912 C 280.982 295.405,280.980 294.655,280.901 294.245 C 280.822 293.835,280.760 294.250,280.762 295.167 M219.462 304.333 C 219.462 306.625,219.515 307.563,219.580 306.417 C 219.645 305.271,219.645 303.396,219.580 302.250 C 219.515 301.104,219.462 302.042,219.462 304.333 M215.917 301.219 L 216.667 301.380 216.667 309.000 C 216.667 316.367,216.644 316.625,215.995 316.771 C 215.436 316.897,215.450 316.915,216.078 316.878 L 216.833 316.833 216.833 309.000 L 216.833 301.167 216.000 301.112 C 215.266 301.064,215.256 301.077,215.917 301.219 M179.084 302.333 C 179.159 302.615,179.643 302.856,180.192 302.886 C 181.031 302.932,181.051 302.916,180.333 302.769 C 179.875 302.676,179.376 302.427,179.225 302.216 C 179.041 301.960,178.994 301.999,179.084 302.333 M191.776 304.167 C 191.778 305.450,191.838 305.934,191.910 305.243 C 191.982 304.551,191.981 303.501,191.907 302.909 C 191.834 302.317,191.775 302.883,191.776 304.167 M159.142 303.110 C 159.049 303.353,159.023 304.891,159.084 306.526 L 159.196 309.500 159.265 306.272 L 159.333 303.044 160.250 302.905 L 161.167 302.767 160.240 302.717 C 159.730 302.689,159.236 302.866,159.142 303.110 M184.917 302.908 C 185.512 302.982,186.487 302.982,187.083 302.908 C 187.679 302.834,187.192 302.773,186.000 302.773 C 184.808 302.773,184.321 302.834,184.917 302.908 M89.417 304.896 C 89.737 304.980,90.263 304.980,90.583 304.896 C 90.904 304.813,90.642 304.744,90.000 304.744 C 89.358 304.744,89.096 304.813,89.417 304.896 M313.583 304.912 C 314.546 304.980,316.121 304.980,317.083 304.912 C 318.046 304.845,317.258 304.790,315.333 304.790 C 313.408 304.790,312.621 304.845,313.583 304.912 M78.083 305.239 C 78.587 305.315,79.412 305.315,79.917 305.239 C 80.421 305.162,80.008 305.100,79.000 305.100 C 77.992 305.100,77.579 305.162,78.083 305.239 M304.751 310.167 C 304.754 310.900,304.823 311.161,304.902 310.746 C 304.982 310.331,304.979 309.731,304.896 309.413 C 304.812 309.094,304.747 309.433,304.751 310.167 M184.587 309.569 C 185.002 309.649,185.602 309.646,185.921 309.562 C 186.239 309.479,185.900 309.414,185.167 309.417 C 184.433 309.421,184.173 309.489,184.587 309.569 M199.757 311.000 C 199.757 311.825,199.822 312.162,199.902 311.750 C 199.981 311.337,199.981 310.662,199.902 310.250 C 199.822 309.837,199.757 310.175,199.757 311.000 M219.481 313.167 C 219.500 316.735,219.520 316.835,220.255 316.878 C 220.861 316.913,220.880 316.893,220.349 316.773 C 219.750 316.637,219.678 316.291,219.576 313.062 L 219.463 309.500 219.481 313.167 M252.148 313.167 L 252.167 316.833 253.167 316.882 C 254.095 316.926,254.101 316.919,253.261 316.777 L 252.355 316.625 252.242 313.062 L 252.129 309.500 252.148 313.167 M159.142 310.443 C 159.049 310.687,159.016 312.224,159.070 313.860 L 159.167 316.833 160.167 316.882 C 161.117 316.927,161.121 316.922,160.250 316.776 L 159.333 316.622 159.333 313.489 L 159.333 310.355 163.083 310.249 L 166.833 310.143 163.073 310.071 C 160.201 310.017,159.272 310.105,159.142 310.443 M243.751 312.500 C 243.754 313.233,243.823 313.494,243.902 313.079 C 243.982 312.665,243.979 312.065,243.896 311.746 C 243.812 311.427,243.747 311.767,243.751 312.500 M143.000 312.417 C 143.000 312.554,144.237 312.644,145.750 312.617 C 148.589 312.565,148.261 312.425,144.916 312.261 C 143.862 312.209,142.999 312.279,143.000 312.417 M199.744 314.667 C 199.744 315.308,199.813 315.571,199.896 315.250 C 199.980 314.929,199.980 314.404,199.896 314.083 C 199.813 313.762,199.744 314.025,199.744 314.667 M94.791 319.833 C 94.792 321.850,94.847 322.632,94.913 321.571 C 94.980 320.510,94.979 318.860,94.912 317.904 C 94.845 316.949,94.791 317.817,94.791 319.833 M179.222 316.889 C 179.100 317.011,179.002 317.274,179.005 317.472 C 179.008 317.712,179.092 317.705,179.255 317.450 C 179.390 317.240,179.875 316.998,180.333 316.912 L 181.167 316.757 180.306 316.712 C 179.832 316.687,179.344 316.767,179.222 316.889 M184.333 316.853 C 185.596 317.127,187.333 317.174,187.333 316.933 C 187.333 316.787,186.546 316.684,185.583 316.705 C 184.621 316.727,184.058 316.793,184.333 316.853 M305.100 323.000 C 305.100 324.008,305.162 324.421,305.239 323.917 C 305.315 323.412,305.315 322.587,305.239 322.083 C 305.162 321.579,305.100 321.992,305.100 323.000 " stroke="none" fill="#8c949c" fill-rule="evenodd"></path><path id="path2" d="M194.917 96.241 C 195.512 96.315,196.487 96.315,197.083 96.241 C 197.679 96.167,197.192 96.107,196.000 96.107 C 194.808 96.107,194.321 96.167,194.917 96.241 M202.917 96.241 C 203.512 96.315,204.487 96.315,205.083 96.241 C 205.679 96.167,205.192 96.107,204.000 96.107 C 202.808 96.107,202.321 96.167,202.917 96.241 M112.333 117.500 C 117.372 122.542,121.570 126.667,121.662 126.667 C 121.754 126.667,117.706 122.542,112.667 117.500 C 107.628 112.458,103.430 108.333,103.338 108.333 C 103.246 108.333,107.294 112.458,112.333 117.500 M288.497 116.083 L 280.833 123.833 288.583 116.169 C 295.785 109.048,296.484 108.333,296.247 108.333 C 296.200 108.333,292.712 111.821,288.497 116.083 M276.994 127.583 L 273.500 131.167 277.083 127.673 C 280.412 124.427,280.818 124.000,280.577 124.000 C 280.528 124.000,278.916 125.612,276.994 127.583 M181.795 130.667 C 181.795 132.958,181.848 133.896,181.913 132.750 C 181.979 131.604,181.979 129.729,181.913 128.583 C 181.848 127.438,181.795 128.375,181.795 130.667 M218.128 130.667 C 218.128 132.958,218.182 133.896,218.247 132.750 C 218.312 131.604,218.312 129.729,218.247 128.583 C 218.182 127.438,218.128 128.375,218.128 130.667 M192.750 130.916 C 196.737 130.969,203.262 130.969,207.250 130.916 C 211.237 130.863,207.975 130.820,200.000 130.820 C 192.025 130.820,188.762 130.863,192.750 130.916 M260.833 256.333 C 274.032 269.533,284.907 280.333,284.998 280.333 C 285.090 280.333,274.366 269.533,261.167 256.333 C 247.968 243.133,237.093 232.333,237.002 232.333 C 236.910 232.333,247.634 243.133,260.833 256.333 M132.999 261.917 L 114.167 280.833 133.083 262.001 C 150.667 244.496,152.150 243.000,151.916 243.000 C 151.869 243.000,143.357 251.512,132.999 261.917 M312.313 292.398 L 324.460 304.630 322.480 304.752 L 320.500 304.874 322.583 304.937 C 323.729 304.972,324.667 304.887,324.667 304.748 C 324.667 304.610,319.154 299.022,312.417 292.332 L 300.167 280.167 312.313 292.398 M87.415 292.752 C 74.960 305.210,74.825 305.360,76.083 305.295 C 76.718 305.262,76.736 305.231,76.202 305.094 C 75.707 304.968,78.194 302.309,87.700 292.800 C 94.372 286.127,99.755 280.667,99.663 280.667 C 99.572 280.667,94.060 286.105,87.415 292.752 M110.833 291.667 C 106.987 295.517,103.914 298.667,104.006 298.667 C 104.098 298.667,107.320 295.517,111.167 291.667 C 115.013 287.817,118.086 284.667,117.994 284.667 C 117.902 284.667,114.680 287.817,110.833 291.667 M183.788 306.167 C 183.789 308.000,183.845 308.707,183.913 307.739 C 183.980 306.770,183.980 305.270,183.911 304.405 C 183.843 303.541,183.788 304.333,183.788 306.167 M96.823 305.750 L 94.833 307.833 96.917 305.844 C 98.852 303.996,99.153 303.667,98.906 303.667 C 98.855 303.667,97.917 304.604,96.823 305.750 M86.750 304.896 C 87.071 304.980,87.596 304.980,87.917 304.896 C 88.237 304.813,87.975 304.744,87.333 304.744 C 86.692 304.744,86.429 304.813,86.750 304.896 M213.091 308.667 C 213.091 309.492,213.156 309.829,213.235 309.417 C 213.315 309.004,213.315 308.329,213.235 307.917 C 213.156 307.504,213.091 307.842,213.091 308.667 M233.132 312.000 C 233.132 314.658,233.184 315.746,233.248 314.417 C 233.311 313.087,233.311 310.912,233.248 309.583 C 233.184 308.254,233.132 309.342,233.132 312.000 M256.791 313.167 C 256.792 315.183,256.847 315.965,256.913 314.904 C 256.980 313.844,256.979 312.194,256.912 311.238 C 256.845 310.282,256.791 311.150,256.791 313.167 M183.788 313.500 C 183.789 315.333,183.845 316.041,183.913 315.072 C 183.980 314.104,183.980 312.604,183.911 311.739 C 183.843 310.874,183.788 311.667,183.788 313.500 M304.762 313.500 C 304.765 314.417,304.829 314.752,304.906 314.245 C 304.982 313.739,304.980 312.989,304.901 312.579 C 304.822 312.169,304.760 312.583,304.762 313.500 M98.017 321.483 C 96.476 323.032,95.068 324.209,94.889 324.098 C 94.699 323.981,94.671 324.071,94.823 324.317 C 95.031 324.652,101.000 319.279,101.000 318.757 C 101.000 318.519,100.624 318.862,98.017 321.483 " stroke="none" fill="#bcc4c4" fill-rule="evenodd"></path><path id="path3" d="M193.776 94.167 C 193.778 95.450,193.838 95.934,193.910 95.243 C 193.982 94.551,193.981 93.501,193.907 92.909 C 193.834 92.317,193.775 92.883,193.776 94.167 M206.109 94.167 C 206.111 95.450,206.171 95.934,206.243 95.243 C 206.315 94.551,206.314 93.501,206.241 92.909 C 206.167 92.317,206.108 92.883,206.109 94.167 M140.833 136.333 C 158.983 154.483,173.907 169.333,173.999 169.333 C 174.090 169.333,159.316 154.483,141.167 136.333 C 123.017 118.183,108.093 103.333,108.001 103.333 C 107.910 103.333,122.684 118.183,140.833 136.333 M261.833 133.083 L 232.167 162.833 261.917 133.167 C 278.279 116.851,291.667 103.464,291.667 103.417 C 291.667 103.184,289.411 105.427,261.833 133.083 M185.796 129.144 C 185.694 129.410,185.681 129.899,185.766 130.231 C 185.869 130.625,185.936 130.516,185.961 129.917 L 186.000 129.000 199.978 129.000 L 213.956 129.000 214.093 129.750 C 214.213 130.403,214.227 130.392,214.199 129.667 L 214.167 128.833 200.074 128.746 C 188.004 128.672,185.955 128.729,185.796 129.144 M96.932 202.915 C 98.454 202.977,100.854 202.976,102.266 202.914 C 103.678 202.852,102.433 202.801,99.500 202.802 C 96.567 202.802,95.411 202.853,96.932 202.915 M291.932 202.915 C 293.454 202.977,295.854 202.976,297.266 202.914 C 298.678 202.852,297.433 202.801,294.500 202.802 C 291.567 202.802,290.411 202.853,291.932 202.915 M174.333 230.250 L 149.167 255.500 174.417 230.334 C 188.304 216.493,199.667 205.130,199.667 205.084 C 199.667 204.850,197.727 206.777,174.333 230.250 M225.167 230.333 C 239.099 244.267,250.573 255.667,250.665 255.667 C 250.757 255.667,239.432 244.267,225.500 230.333 C 211.568 216.400,200.093 205.000,200.002 205.000 C 199.910 205.000,211.234 216.400,225.167 230.333 M105.667 208.294 C 104.757 208.455,104.490 208.666,104.456 209.255 C 104.419 209.883,104.437 209.897,104.562 209.338 C 104.678 208.825,104.982 208.667,105.857 208.667 C 106.485 208.667,107.000 208.517,107.000 208.333 C 107.000 208.150,106.962 208.020,106.917 208.044 C 106.871 208.068,106.308 208.181,105.667 208.294 M300.667 208.294 C 299.757 208.455,299.490 208.666,299.456 209.255 C 299.419 209.883,299.437 209.897,299.562 209.338 C 299.678 208.825,299.982 208.667,300.857 208.667 C 301.485 208.667,302.000 208.517,302.000 208.333 C 302.000 208.150,301.962 208.020,301.917 208.044 C 301.871 208.068,301.308 208.181,300.667 208.294 M92.500 208.502 C 93.262 208.768,95.274 208.840,95.124 208.597 C 95.034 208.452,94.332 208.345,93.564 208.360 C 92.795 208.374,92.317 208.438,92.500 208.502 M287.500 208.502 C 288.262 208.768,290.274 208.840,290.124 208.597 C 290.034 208.452,289.332 208.345,288.564 208.360 C 287.795 208.374,287.317 208.438,287.500 208.502 M286.583 280.246 C 287.546 280.313,289.121 280.313,290.083 280.246 C 291.046 280.178,290.258 280.123,288.333 280.123 C 286.408 280.123,285.621 280.178,286.583 280.246 M103.925 280.911 C 104.709 280.982,105.909 280.981,106.592 280.909 C 107.275 280.837,106.633 280.780,105.167 280.781 C 103.700 280.782,103.141 280.841,103.925 280.911 M278.167 283.333 C 279.255 284.433,280.221 285.333,280.312 285.333 C 280.404 285.333,279.589 284.433,278.500 283.333 C 277.411 282.233,276.446 281.333,276.354 281.333 C 276.263 281.333,277.078 282.233,278.167 283.333 M103.498 293.417 L 92.167 304.833 103.576 293.509 L 114.986 282.184 116.410 283.509 L 117.833 284.833 116.516 283.417 C 115.791 282.637,115.115 282.000,115.014 282.000 C 114.913 282.000,109.730 287.137,103.498 293.417 M283.160 283.341 L 281.850 284.681 287.341 290.091 L 292.831 295.500 287.503 290.084 L 282.176 284.668 283.422 283.422 L 284.668 282.176 290.251 287.671 L 295.833 293.167 290.337 287.583 C 284.013 281.159,284.823 281.637,283.160 283.341 M119.455 296.833 C 119.456 298.667,119.512 299.374,119.579 298.405 C 119.647 297.437,119.646 295.937,119.578 295.072 C 119.509 294.207,119.454 295.000,119.455 296.833 M301.333 304.167 C 303.068 305.908,304.562 307.333,304.653 307.333 C 304.745 307.333,303.401 305.908,301.667 304.167 C 299.932 302.425,298.438 301.000,298.347 301.000 C 298.255 301.000,299.599 302.425,301.333 304.167 M169.474 309.833 C 169.475 313.683,169.523 315.213,169.582 313.232 C 169.641 311.251,169.641 308.101,169.582 306.232 C 169.522 304.363,169.474 305.983,169.474 309.833 M308.254 304.902 C 308.669 304.982,309.269 304.979,309.587 304.896 C 309.906 304.812,309.567 304.747,308.833 304.751 C 308.100 304.754,307.839 304.823,308.254 304.902 M81.417 305.239 C 81.921 305.315,82.746 305.315,83.250 305.239 C 83.754 305.162,83.342 305.100,82.333 305.100 C 81.325 305.100,80.912 305.162,81.417 305.239 M94.785 310.500 C 94.784 312.150,94.840 312.867,94.910 312.093 C 94.980 311.320,94.981 309.970,94.912 309.093 C 94.843 308.217,94.786 308.850,94.785 310.500 M230.463 312.500 C 230.463 314.883,230.517 315.815,230.581 314.569 C 230.645 313.324,230.645 311.374,230.580 310.236 C 230.515 309.098,230.462 310.117,230.463 312.500 M305.095 319.833 C 305.098 320.750,305.163 321.085,305.239 320.579 C 305.316 320.072,305.314 319.322,305.235 318.912 C 305.156 318.502,305.093 318.917,305.095 319.833 " stroke="none" fill="#5c6c74" fill-rule="evenodd"></path><path id="path4" d="M0.000 200.000 L 0.000 400.000 200.000 400.000 L 400.000 400.000 400.000 200.000 L 400.000 0.000 200.000 0.000 L 0.000 0.000 0.000 200.000 M90.500 87.317 C 99.435 90.951,109.961 94.011,117.500 95.165 C 124.639 96.258,124.790 95.698,116.298 99.634 C 112.193 101.538,108.724 103.190,108.591 103.306 C 108.458 103.422,128.934 124.101,154.092 149.259 L 199.834 195.000 245.629 149.204 L 291.424 103.408 288.629 102.100 C 287.091 101.381,283.602 99.751,280.875 98.479 L 275.916 96.167 277.375 95.930 C 278.177 95.799,280.333 95.456,282.167 95.166 C 290.052 93.921,301.305 90.601,310.308 86.863 C 312.770 85.841,314.820 85.043,314.866 85.088 C 314.911 85.133,314.281 86.730,313.465 88.637 C 308.836 99.460,304.953 113.195,304.144 121.605 C 304.015 122.946,303.807 123.921,303.682 123.771 C 303.557 123.622,301.899 120.162,299.997 116.083 C 298.096 112.004,296.456 108.667,296.353 108.667 C 296.250 108.667,275.616 129.217,250.500 154.333 L 204.834 200.000 244.834 239.988 L 284.833 279.975 292.667 280.155 L 300.500 280.334 312.833 292.667 L 325.166 305.000 316.427 305.000 L 307.688 305.000 301.594 298.957 C 298.242 295.634,293.063 290.499,290.084 287.545 L 284.668 282.176 283.422 283.422 L 282.176 284.668 287.505 290.051 C 290.435 293.011,295.555 298.148,298.881 301.466 L 304.929 307.500 305.139 315.964 C 305.255 320.619,305.285 324.493,305.207 324.571 C 305.128 324.650,299.537 319.189,292.782 312.436 L 280.500 300.158 280.611 294.829 C 280.671 291.898,280.620 288.544,280.496 287.376 L 280.272 285.252 240.219 245.315 C 218.190 223.350,200.017 205.389,199.833 205.402 C 199.650 205.416,181.537 223.305,159.583 245.155 L 119.667 284.884 119.667 292.527 L 119.667 300.170 107.167 312.667 L 94.667 325.163 94.667 316.447 L 94.667 307.731 106.175 296.296 L 117.684 284.861 116.343 283.519 L 115.002 282.178 103.584 293.548 L 92.167 304.918 86.030 305.126 C 82.655 305.240,78.755 305.333,77.365 305.333 L 74.837 305.333 87.140 293.027 L 99.442 280.721 106.888 280.610 L 114.334 280.500 154.583 240.250 L 194.833 200.000 149.167 154.333 C 124.051 129.217,103.409 108.667,103.297 108.667 C 103.185 108.667,101.568 111.929,99.704 115.917 C 97.839 119.904,96.188 123.368,96.035 123.614 C 95.863 123.890,95.602 122.812,95.352 120.780 C 94.261 111.948,90.657 99.156,86.487 89.317 C 85.986 88.134,85.361 86.659,85.098 86.039 C 84.717 85.138,84.709 84.948,85.060 85.097 C 85.302 85.199,87.750 86.198,90.500 87.317 M202.000 90.000 L 202.000 92.000 204.167 92.000 L 206.333 92.000 206.333 94.167 L 206.333 96.333 204.167 96.333 L 202.000 96.333 202.000 97.500 C 202.000 98.142,202.150 98.667,202.332 98.667 C 202.934 98.667,205.247 100.987,205.675 102.020 C 206.057 102.943,206.186 103.009,207.130 102.766 C 220.729 99.273,230.252 115.321,220.338 125.022 L 218.333 126.983 218.333 130.992 L 218.333 135.000 200.000 135.000 L 181.667 135.000 181.662 130.917 L 181.658 126.833 179.900 125.292 C 169.468 116.145,179.194 99.254,192.870 102.766 C 193.814 103.009,193.943 102.943,194.325 102.020 C 194.753 100.987,197.066 98.667,197.668 98.667 C 197.850 98.667,198.000 98.142,198.000 97.500 L 198.000 96.333 195.833 96.333 L 193.667 96.333 193.667 94.167 L 193.667 92.000 195.833 92.000 L 198.000 92.000 198.000 90.000 L 198.000 88.000 200.000 88.000 L 202.000 88.000 202.000 90.000 M198.818 103.152 C 197.826 104.144,197.787 104.787,198.667 105.667 C 199.803 106.803,202.000 106.024,202.000 104.485 C 202.000 103.896,200.547 102.333,200.000 102.333 C 199.800 102.333,199.268 102.702,198.818 103.152 M185.434 107.215 C 179.890 109.179,178.128 116.832,182.129 121.566 C 184.079 123.873,186.153 124.486,192.460 124.618 L 198.087 124.736 197.936 119.118 C 197.764 112.748,197.392 111.414,195.169 109.191 C 192.774 106.796,188.860 106.001,185.434 107.215 M208.151 107.109 C 205.543 108.113,203.644 109.971,202.640 112.500 C 202.418 113.061,202.171 115.967,202.078 119.118 L 201.913 124.736 207.540 124.618 C 215.149 124.459,217.505 123.351,219.423 119.035 C 222.505 112.099,215.215 104.387,208.151 107.109 M186.000 129.833 L 186.000 130.667 200.000 130.667 L 214.000 130.667 214.000 129.833 L 214.000 129.000 200.000 129.000 L 186.000 129.000 186.000 129.833 M107.091 196.250 C 112.020 208.046,112.162 208.333,113.070 208.333 C 113.840 208.333,114.000 208.477,114.000 209.167 L 114.000 210.000 109.143 210.000 C 104.298 210.000,104.287 209.998,104.393 209.250 C 104.475 208.675,104.753 208.476,105.583 208.396 C 106.898 208.269,106.895 208.356,105.686 205.490 L 104.706 203.167 99.478 203.167 L 94.250 203.167 93.291 205.661 C 92.764 207.033,92.333 208.187,92.333 208.225 C 92.333 208.264,92.971 208.341,93.750 208.398 C 94.928 208.483,95.185 208.627,95.273 209.250 C 95.378 209.987,95.320 210.000,91.857 210.000 L 88.333 210.000 88.333 209.167 C 88.333 208.477,88.494 208.333,89.262 208.333 C 90.147 208.333,90.276 208.115,91.977 203.750 C 92.960 201.229,95.107 195.746,96.749 191.565 L 99.734 183.964 100.889 184.065 L 102.043 184.167 107.091 196.250 M302.091 196.250 C 307.020 208.046,307.162 208.333,308.070 208.333 C 308.840 208.333,309.000 208.477,309.000 209.167 L 309.000 210.000 304.143 210.000 C 299.298 210.000,299.287 209.998,299.393 209.250 C 299.475 208.675,299.753 208.476,300.583 208.396 C 301.898 208.269,301.895 208.356,300.686 205.490 L 299.706 203.167 294.478 203.167 L 289.250 203.167 288.291 205.661 C 287.764 207.033,287.333 208.187,287.333 208.225 C 287.333 208.264,287.971 208.341,288.750 208.398 C 289.928 208.483,290.185 208.627,290.273 209.250 C 290.378 209.987,290.320 210.000,286.857 210.000 L 283.333 210.000 283.333 209.167 C 283.333 208.477,283.494 208.333,284.262 208.333 C 285.147 208.333,285.276 208.115,286.977 203.750 C 287.960 201.229,290.107 195.746,291.749 191.565 L 294.734 183.964 295.889 184.065 L 297.043 184.167 302.091 196.250 M97.091 195.710 C 95.949 198.689,95.066 201.177,95.128 201.240 C 95.191 201.302,97.191 201.311,99.572 201.260 L 103.902 201.167 101.810 196.167 C 100.659 193.417,99.593 190.970,99.442 190.731 C 99.262 190.446,98.447 192.172,97.091 195.710 M292.091 195.710 C 290.949 198.689,290.066 201.177,290.128 201.240 C 290.191 201.302,292.191 201.311,294.572 201.260 L 298.902 201.167 296.810 196.167 C 295.659 193.417,294.593 190.970,294.442 190.731 C 294.262 190.446,293.447 192.172,292.091 195.710 M219.667 304.167 C 219.667 306.275,219.725 308.000,219.795 308.000 C 219.866 308.000,220.353 307.776,220.879 307.502 C 224.523 305.601,226.667 307.633,226.667 312.988 L 226.667 316.667 227.500 316.667 C 228.019 316.667,228.333 316.856,228.333 317.167 C 228.333 317.574,227.778 317.667,225.333 317.667 C 222.889 317.667,222.333 317.574,222.333 317.167 C 222.333 316.856,222.648 316.667,223.167 316.667 L 224.000 316.667 224.000 313.000 C 224.000 308.086,223.175 307.136,220.417 308.876 C 219.713 309.319,219.667 309.576,219.667 313.008 L 219.667 316.667 220.500 316.667 C 221.019 316.667,221.333 316.856,221.333 317.167 C 221.333 317.576,220.759 317.667,218.167 317.667 C 215.574 317.667,215.000 317.576,215.000 317.167 C 215.000 316.856,215.315 316.667,215.833 316.667 L 216.667 316.667 216.667 309.000 L 216.667 301.333 215.833 301.333 C 215.315 301.333,215.000 301.144,215.000 300.833 C 215.000 300.437,215.481 300.333,217.333 300.333 L 219.667 300.333 219.667 304.167 M148.132 304.083 C 148.612 305.229,149.964 308.492,151.135 311.333 C 152.491 314.625,153.458 316.539,153.799 316.608 C 155.644 316.980,154.153 317.667,151.500 317.667 C 149.204 317.667,148.667 317.572,148.667 317.167 C 148.667 316.889,148.963 316.667,149.333 316.667 C 150.147 316.667,150.147 316.731,149.345 314.861 L 148.690 313.333 145.745 313.333 L 142.801 313.333 142.353 314.583 C 142.107 315.271,141.836 316.021,141.751 316.250 C 141.651 316.516,141.909 316.667,142.464 316.667 C 143.015 316.667,143.333 316.850,143.333 317.167 C 143.333 317.560,142.870 317.667,141.167 317.667 C 139.463 317.667,139.000 317.560,139.000 317.167 C 139.000 316.892,139.278 316.667,139.618 316.667 C 140.116 316.667,140.779 315.244,143.034 309.334 C 146.308 300.760,146.608 300.450,148.132 304.083 M161.000 302.500 C 161.000 302.811,160.685 303.000,160.167 303.000 C 159.336 303.000,159.333 303.011,159.333 306.167 L 159.333 309.333 163.000 309.333 L 166.667 309.333 166.667 306.167 C 166.667 303.011,166.664 303.000,165.833 303.000 C 165.315 303.000,165.000 302.811,165.000 302.500 C 165.000 302.093,165.556 302.000,168.000 302.000 C 170.444 302.000,171.000 302.093,171.000 302.500 C 171.000 302.778,170.704 303.000,170.333 303.000 C 169.688 303.000,169.667 303.222,169.667 309.833 C 169.667 316.444,169.688 316.667,170.333 316.667 C 170.704 316.667,171.000 316.889,171.000 317.167 C 171.000 317.574,170.444 317.667,168.000 317.667 C 165.556 317.667,165.000 317.574,165.000 317.167 C 165.000 316.856,165.315 316.667,165.833 316.667 C 166.664 316.667,166.667 316.656,166.667 313.500 L 166.667 310.333 163.000 310.333 L 159.333 310.333 159.333 313.500 C 159.333 316.656,159.336 316.667,160.167 316.667 C 160.685 316.667,161.000 316.856,161.000 317.167 C 161.000 317.576,160.426 317.667,157.833 317.667 C 155.241 317.667,154.667 317.576,154.667 317.167 C 154.667 316.856,154.981 316.667,155.500 316.667 L 156.333 316.667 156.333 309.833 L 156.333 303.000 155.500 303.000 C 154.981 303.000,154.667 302.811,154.667 302.500 C 154.667 302.091,155.241 302.000,157.833 302.000 C 160.426 302.000,161.000 302.091,161.000 302.500 M192.000 304.333 C 192.000 307.123,191.308 307.574,190.704 305.177 C 190.231 303.297,189.661 303.000,186.522 303.000 L 184.000 303.000 184.000 306.167 L 184.000 309.333 185.600 309.333 C 187.291 309.333,188.000 308.920,188.000 307.933 C 188.000 307.603,188.225 307.333,188.500 307.333 C 188.903 307.333,189.000 307.852,189.000 310.000 C 189.000 312.767,188.315 313.824,187.892 311.710 C 187.687 310.685,186.993 310.346,185.083 310.338 L 184.000 310.333 184.000 313.500 L 184.000 316.667 185.667 316.667 C 186.926 316.667,187.333 316.789,187.333 317.167 C 187.333 317.584,186.648 317.667,183.167 317.667 C 179.685 317.667,179.000 317.584,179.000 317.167 C 179.000 316.833,179.333 316.667,180.000 316.667 L 181.000 316.667 181.000 309.833 L 181.000 303.000 180.000 303.000 C 179.333 303.000,179.000 302.833,179.000 302.500 C 179.000 302.073,179.944 302.000,185.500 302.000 L 192.000 302.000 192.000 304.333 M232.933 302.733 C 233.153 302.953,233.333 303.448,233.333 303.833 C 233.333 305.405,231.265 305.946,230.625 304.542 C 229.912 302.976,231.742 301.542,232.933 302.733 M144.372 309.216 C 143.130 312.626,143.010 312.389,145.919 312.265 L 148.251 312.167 147.061 309.250 C 145.604 305.680,145.660 305.681,144.372 309.216 M201.019 307.677 C 202.200 308.309,202.667 310.012,202.667 313.697 C 202.667 316.709,202.723 317.035,203.181 316.655 C 203.537 316.359,203.801 316.335,204.042 316.576 C 204.990 317.523,202.018 318.375,200.783 317.510 C 200.165 317.078,199.926 317.083,198.732 317.552 C 196.091 318.589,193.303 317.252,193.237 314.916 C 193.170 312.571,195.607 311.157,198.419 311.908 L 199.699 312.249 199.599 310.549 C 199.451 308.012,196.494 306.915,196.498 309.399 C 196.502 311.302,194.334 311.560,194.057 309.688 C 193.743 307.569,198.337 306.242,201.019 307.677 M211.221 307.354 C 211.879 307.604,212.188 307.604,212.271 307.354 C 212.638 306.254,213.333 307.113,213.333 308.667 C 213.333 310.513,212.576 311.015,212.016 309.541 C 211.642 308.559,209.950 307.909,208.853 308.326 C 206.951 309.049,207.658 310.210,210.669 311.308 C 213.966 312.510,214.963 314.755,213.050 316.668 C 211.815 317.903,210.027 318.243,208.313 317.569 C 207.567 317.276,206.924 317.187,206.816 317.361 C 206.276 318.234,205.667 317.601,205.667 316.167 C 205.667 314.444,206.261 314.165,207.125 315.483 C 208.105 316.980,211.421 317.299,211.853 315.939 C 212.106 315.142,211.486 314.640,209.262 313.840 C 205.891 312.628,204.658 310.064,206.583 308.271 C 207.995 306.955,209.427 306.672,211.221 307.354 M243.811 307.672 C 247.708 309.602,247.658 315.424,243.727 317.369 C 240.130 319.149,236.000 316.601,236.000 312.601 C 236.000 308.303,239.996 305.781,243.811 307.672 M257.484 307.472 C 259.100 308.147,259.333 308.841,259.333 312.978 L 259.333 316.667 260.167 316.667 C 260.685 316.667,261.000 316.856,261.000 317.167 C 261.000 317.576,260.426 317.667,257.833 317.667 C 255.241 317.667,254.667 317.576,254.667 317.167 C 254.667 316.833,255.000 316.667,255.667 316.667 L 256.667 316.667 256.667 313.000 C 256.667 308.086,255.842 307.136,253.083 308.876 C 252.380 309.319,252.333 309.576,252.333 313.008 L 252.333 316.667 253.167 316.667 C 253.685 316.667,254.000 316.856,254.000 317.167 C 254.000 317.576,253.426 317.667,250.833 317.667 C 248.241 317.667,247.667 317.576,247.667 317.167 C 247.667 316.856,247.981 316.667,248.500 316.667 L 249.333 316.667 249.333 312.333 L 249.333 308.000 248.500 308.000 C 248.042 308.000,247.667 307.850,247.667 307.667 C 247.667 307.216,252.244 307.232,252.394 307.683 C 252.470 307.911,252.918 307.857,253.672 307.530 C 255.142 306.892,256.063 306.878,257.484 307.472 M233.333 312.000 L 233.333 316.667 234.167 316.667 C 234.685 316.667,235.000 316.856,235.000 317.167 C 235.000 317.576,234.423 317.667,231.806 317.667 C 228.794 317.667,227.369 317.057,229.609 316.727 C 230.694 316.567,230.750 308.333,229.667 308.333 C 229.296 308.333,229.000 308.111,229.000 307.833 C 229.000 307.440,229.463 307.333,231.167 307.333 L 233.333 307.333 233.333 312.000 M240.458 308.328 C 237.521 309.516,238.968 317.556,241.978 316.769 C 243.984 316.244,244.335 308.333,242.352 308.333 C 242.188 308.333,241.855 308.268,241.611 308.188 C 241.366 308.107,240.848 308.171,240.458 308.328 M197.093 313.007 C 195.740 313.551,195.697 315.970,197.029 316.682 C 198.242 317.332,199.483 316.399,199.603 314.747 C 199.694 313.490,198.777 312.385,197.895 312.688 C 197.861 312.699,197.500 312.843,197.093 313.007 " stroke="none" fill="#344c54" fill-rule="evenodd"></path></g></svg>